<svg xmlns="http://www.w3.org/2000/svg" width="698" height="1800" viewBox="0 0 698 1800">
  <defs>
    <style>
      .cls-1 {
        fill: #f6f7f3;
        fill-rule: evenodd;
      }
    </style>
  </defs>
  <path id="face_copy_3" data-name="face copy 3" class="cls-1" d="M1554.9-334.7L2227.08,1048.27,1083.33,2998.74,14.107,2000.26l-9-117.56s29.2-25.44,11.937-94.8-56-194.61,106.962-210.13,208.614-16.15,247.144-60.31,22.1-150.13,10.361-165-73.676-59.61-33.79-94.22,56.56-59.97,51.682-87.05-43.4-33.96-5.3-48.66,36.334-57.82,36.334-57.82-59.373-92.865,28.358-137.519c25.507-12.983,53.665-11.19,81.43-52.767s-22.695-106.616-42.825-121.352S325.278,556.251,323.815,552.53s-29.219-46.016-15.1-84.661c1.414-3.872,58.335-36.617,22.925-96.86s-36.449-41.36-48.758-60.559c-7.99-12.463-68.374-94.7-90.783-159.653C172.94,95.272,106.7,2.909,106.7,2.909S-33.339-178.649-137.238-185.952Z"/>
</svg>
