<svg id="Layer_1" data-name="Layer 1" xmlns="http://www.w3.org/2000/svg" viewBox="0 0 0.461 0.998">
  <title>hand-of-adam</title>
  <path d="M.477,1a.035.035,0,0,1,0-.043A.1.1,0,0,1,.506.924.1.1,0,0,0,.541.89H.53A.82.82,0,0,1,.393.919C.385.92.379.91.382.9A.08.08,0,0,1,.393.88L.4.872.4.87C.384.868.382.866.385.853A.027.027,0,0,1,.408.831l.03,0,.011,0A.074.074,0,0,1,.493.8L.5.8A.118.118,0,0,1,.539.764l0,0v0H.527a.219.219,0,0,1-.03,0A.049.049,0,0,0,.467.769.053.053,0,0,1,.421.778.026.026,0,0,1,.406.736L.415.724A.222.222,0,0,0,.393.71C.385.705.385.7.39.694A.043.043,0,0,1,.411.683a.146.146,0,0,1,.03,0H.449A.241.241,0,0,0,.515.594.446.446,0,0,0,.533.528.131.131,0,0,1,.591.439L.615.424A.226.226,0,0,0,.541.3a.5.5,0,0,1-.1-.125A.711.711,0,0,1,.406.094.478.478,0,0,0,.36.011L.353,0H.687l0,.012A.153.153,0,0,0,.707.063a.338.338,0,0,1,.042.11.092.092,0,0,1,0,.013A.143.143,0,0,0,.776.266.409.409,0,0,1,.8.325a.162.162,0,0,1,.01.025.077.077,0,0,1,0,.027C.81.411.806.445.8.479A.7.7,0,0,1,.773.562a.394.394,0,0,0-.02.093C.751.676.748.7.745.719A.069.069,0,0,1,.71.769L.7.775A.051.051,0,0,0,.672.817a.1.1,0,0,1-.01.033C.656.861.649.872.644.884A.086.086,0,0,1,.608.922L.6.927A.4.4,0,0,1,.5.985.129.129,0,0,0,.477,1ZM.532.7H.568L.576.694c0-.011,0-.022,0-.035A.107.107,0,0,0,.532.7Z" transform="translate(-0.353)"/>
</svg>
