<svg id="Layer_1" data-name="Layer 1" xmlns="http://www.w3.org/2000/svg" viewBox="0 0 0.484 0.945">
  <path d="M.453.343A.054.054,0,0,1,.477.311l0,0C.484.284.489.261.493.238a.129.129,0,0,0,0-.022L.493.2A.332.332,0,0,0,.485.127a.128.128,0,0,1,0-.046A.044.044,0,0,1,.5.062a.016.016,0,0,1,.03.006A.369.369,0,0,1,.547.14.156.156,0,0,0,.556.17.164.164,0,0,1,.564.2.49.49,0,0,1,.558.3a.152.152,0,0,0,0,.026c0,.015,0,.029,0,.044A.123.123,0,0,0,.569.407.5.5,0,0,1,.61.549.415.415,0,0,1,.616.605.188.188,0,0,0,.629.674.176.176,0,0,1,.64.744.125.125,0,0,0,.649.8.192.192,0,0,1,.661.873c0,.022,0,.044,0,.066s0,.04.007.06H.37c0-.026,0-.052.009-.077C.389.874.4.824.412.774a.27.27,0,0,0,0-.049L.41.716.4.711.373.666.353.639A.161.161,0,0,1,.339.616C.331.6.323.583.317.565a.087.087,0,0,1,0-.026c0-.012,0-.025,0-.039A.033.033,0,0,1,.283.484H.277l-.02,0a.045.045,0,0,0-.014,0A.035.035,0,0,1,.2.454.018.018,0,0,1,.211.431.145.145,0,0,1,.241.424H.277l.013,0L.321.443a.026.026,0,0,0,.024,0L.339.437.306.407.289.4.252.377l-.009,0A.308.308,0,0,1,.205.367.024.024,0,0,1,.192.331a.013.013,0,0,0,0-.016.024.024,0,0,1,0-.027C.194.278.2.278.213.277L.256.272a.1.1,0,0,1,.049,0l.016,0A.019.019,0,0,0,.344.268.049.049,0,0,1,.368.249.018.018,0,0,1,.393.261C.4.274.406.286.412.3S.439.326.453.343Z" transform="translate(-0.186 -0.055)"/>
</svg>
