<svg xmlns="http://www.w3.org/2000/svg" id="logo" x="0px" y="0px" viewBox="0 0 1000 1000" xml:space="preserve">
    <defs>
        <style>
        #logo{
            fill: #f6f7f3;
        }
        .logo-text-hightlight{
            fill: #8deb00
        }
        </style>
    </defs>
    <g>
        <polygon class="st0" points="731.2,566.2 501.3,796 337.1,631.8 402.8,566.2 271.4,434.8 501.3,204.9 501.3,270.6 337.1,434.8 
    435.6,533.3 501.3,467.6 501.3,664.7 435.6,599 402.8,631.8 501.3,730.4 665.5,566.2 501.3,402 501.3,336.3 	" />
    </g>
    <g class="logo-text-hightlight">
        <path d="M142.6,217.9l-1.3,10.9c-3.8-0.4-6.9,1-9.2,4.1c-3.2,4.5-2.2,10.2,2.7,13.8c5.5,4,11.1,2.2,14-1.8
    c2.2-3.1,2.6-6.5,1.2-10.2l10.2-3.6c2.4,6.3,1.7,13.3-2.9,19.7c-7.2,10-19.2,12-29,5c-9.8-7.1-11.6-19.1-4.4-29.1
    C128.4,220.4,135.4,217,142.6,217.9z" />
        <path d="M205.4,166.4c8.3,8.5,8.2,20.8-0.6,29.4s-21.1,8.4-29.4-0.1c-8.3-8.5-8.2-20.8,0.6-29.4
    C184.8,157.8,197.1,157.9,205.4,166.4z M183.3,188c4.2,4.4,10,4.6,14.2,0.5c4.1-4.1,4.1-9.9-0.2-14.2c-4.2-4.4-10-4.6-14.2-0.5
    C179,177.8,179.1,183.6,183.3,188z" />
        <path d="M257.1,132.8c6.2,8.8,4.4,16.5-3,21.8c-4.8,3.4-9.6,4.2-12.9,3.7l-0.6-9.8c1.9,0.2,4.3-0.1,6.6-1.7
    c2.7-1.9,3.3-4.5,0.5-8.4l-13.6-19.2l8.8-6.2L257.1,132.8z" />
        <path d="M326.4,111.8l-27.9,13.8L281,90l27.9-13.8l4.2,8.6l-18.2,9l2.3,4.7l16.9-8.3l4.2,8.6l-16.9,8.3l2.5,5.1l18.2-9L326.4,111.8
    z" />
        <path d="M399.8,86.4l-11,3.3l-4.7-6.5l-14.2,4.2l-0.3,8l-10.8,3.2l3.1-42.4l12.2-3.6L399.8,86.4z M370.3,77.2l7.8-2.3l-7.2-10.1
    L370.3,77.2z" />
        <path d="M512.5,39.5l-7.5,7.6c-1.8-1.7-4.2-2.9-7.6-2.8c-5.6,0.1-9.5,4.4-9.5,10.6c0.1,7.2,4.8,10.8,9.9,10.7c5-0.1,7.8-2,8.9-5.9
    l-9.3,0.1l-0.1-7.9l19.8-0.2c0.2,1.2,0.2,2.4,0.3,3.6c0.1,13.3-9.6,20-19,20.1c-12.5,0.1-21.4-8.3-21.5-20.4
    c-0.1-12.1,8.6-20.7,21.1-20.8C504.2,34.1,509,36.1,512.5,39.5z" />
        <path d="M590.6,83.5l-11.3-1.8l-1.4-7.9l-14.7-2.4l-3.8,7.1l-11.1-1.8l21.2-36.8l12.6,2L590.6,83.5z M568.1,62.4l8,1.3L574,51.5
    L568.1,62.4z" />
        <path d="M654.7,60.8c10.1,3.5,13.2,9.2,10.8,15.8c-1.3,3.7-4.3,5.7-7.7,6.2c2.8,2.4,4.2,6.4,3,10.1c-2.3,6.7-8.2,9.3-18.1,5.8
    l-17.8-6.2l13-37.6L654.7,60.8z M640.2,81.3l-2.2,6.4l7,2.5c2.9,1,4.8,0.5,5.5-1.7c0.7-2.1-0.4-3.7-3.3-4.8L640.2,81.3z
        M645.2,66.8l-2.2,6.2l6.4,2.2c2.8,1,4.6,0.4,5.3-1.7c0.7-2.1-0.3-3.6-3.1-4.6L645.2,66.8z" />
        <path
            d="M732.4,111.3c-2.9,5.4-8.2,7.6-14.7,5.6l2.5,18l-11.2-6.1l-1.6-17l-0.5-0.3l-6.8,12.4l-9.5-5.2l19-34.9l15.5,8.5
    C734.1,97.1,736.2,104.2,732.4,111.3z M714.5,97.4l-3.4,6.2l6,3.3c2.3,1.3,4.6,1.2,5.8-0.9c1.2-2.1,0-4.1-2.4-5.3L714.5,97.4z" />
        <path d="M759.6,161.9l-8.7-6.4l23.5-32.1l8.7,6.4L759.6,161.9z" />
        <path d="M811.3,208.1l-22.2-21.8L817,158l22.2,21.8l-6.7,6.8L818,172.4l-3.7,3.8l13.5,13.2l-6.7,6.9L807.6,183l-4,4.1l14.5,14.2
    L811.3,208.1z" />
        <path d="M853.7,260.7l-17.8-24.1l32-23.6l6.4,8.7l-24,17.7l11.4,15.4L853.7,260.7z" />
    </g>
    <g>
        <path
            d="M58.6,583.1l-3.3-21.3l-17.4,2.7l-0.7-4.5l38.8-6l4.2,26.8l-4.2,0.7l-3.5-22.4l-12.9,2l3.3,21.3L58.6,583.1z" />
        <path d="M94.8,636.3c2.8,8.4,0.5,14.2-6.2,16.5c-6.4,2.1-12.2-1.5-14.8-9.5l-0.2-0.6l-11.8,18.7l-1.8-5.3l11.9-18.4l-1.5-4.7
    l-16.2,5.3l-1.4-4.3L90,621.7L94.8,636.3z M87.4,627.3l-13.2,4.3l3.4,10.3c1.9,5.7,5.1,7.9,9.5,6.4c4.3-1.4,5.5-5.2,3.7-10.8
    L87.4,627.3z" />
        <path d="M116.2,730.8c-10.4,5.6-21.8,2-27.3-8.3c-5.5-10.3-2.2-21.8,8.2-27.4c10.4-5.6,21.8-2,27.3,8.3
    C129.9,713.7,126.6,725.2,116.2,730.8z M99.3,699.3c-8.3,4.5-10.8,13.4-6.6,21.2c4.2,7.8,13,10.7,21.3,6.2s10.8-13.4,6.6-21.2
    C116.4,697.7,107.6,694.8,99.3,699.3z" />
        <path
            d="M147.1,806.5l-2.6-3.2l9.3-38.7l-24.5,19.8l-2.8-3.5l30.5-24.6l2.6,3.2l-9.3,38.7l24.5-19.8l2.8,3.5L147.1,806.5z" />
        <path d="M226.1,834.8l-10.2-9L192.7,852l-3.4-3l23.1-26.2l-10.2-9l2.8-3.2l23.8,21L226.1,834.8z" />
        <path d="M263.1,903.3l-23.3-14.8l21-33.1l23.1,14.7l-2.3,3.6l-19.3-12.2l-7,11.1l18.7,11.9l-2.2,3.5L253.1,876l-7.2,11.3l19.5,12.4
    L263.1,903.3z" />
        <path
            d="M337.6,939l-3.8-1.5l-10.4-38.4l-12,29.1l-4.2-1.7l15-36.2l3.8,1.5l10.4,38.4l12-29.1l4.2,1.7L337.6,939z" />
        <path d="M409.3,919.1c12.5,2.7,18.9,11.9,16.4,23.6c-2.5,11.7-12,17.5-24.6,14.8l-14.4-3.1l8.2-38.3L409.3,919.1z M398.4,921.1
    l-6.4,30l10,2.2c10.4,2.2,17.1-2.6,19-11.6c1.9-9-2.2-16.2-12.6-18.4L398.4,921.1z" />
        <path d="M534.4,927.7c12.8-1,21.5,5.9,22.5,17.8c1,11.9-6.5,20.2-19.2,21.3l-14.7,1.2l-3.2-39.1L534.4,927.7z M524.6,932.8
    l2.5,30.6l10.2-0.8c10.6-0.9,15.6-7.5,14.9-16.6c-0.8-9.2-6.8-14.8-17.4-14L524.6,932.8z" />
        <path d="M633.2,949.5l-26.7,6.9l-9.9-38l26.5-6.9l1.1,4.1l-22.1,5.7l3.3,12.7l21.4-5.6l1.1,4.1l-21.4,5.6l3.4,13l22.3-5.8
    L633.2,949.5z" />
        <path d="M695.3,926.2l-5.1,2.3l-30.4-29.4l4.4-2l26.8,26.1l-1.6-37.3l4.2-1.9L695.3,926.2z" />
        <path d="M772.8,881.7l-23,15.3l-21.8-32.6l22.8-15.2l2.3,3.5l-19,12.7l7.3,10.9l18.4-12.3l2.3,3.5l-18.4,12.3l7.4,11.2l19.2-12.8
    L772.8,881.7z" />
        <path d="M831.4,832.3l-19.9,18.5l-26.7-28.7l3.3-3.1l23.8,25.6l16.6-15.5L831.4,832.3z" />
        <path d="M868.9,758c9.2,7.3,10.5,19.2,3.2,28.4c-7.2,9.1-19.2,10.6-28.4,3.3s-10.4-19.3-3.2-28.4
    C847.8,752.2,859.7,750.7,868.9,758z M846.7,786.1c7.4,5.9,16.6,4.6,22-2.3c5.5-6.9,4.7-16.1-2.7-22c-7.4-5.9-16.6-4.6-22,2.3
    C838.4,771,839.3,780.2,846.7,786.1z" />
        <path d="M898.4,716.4l14,7.3l-2.1,4l-34.8-18.1l6.8-13.1c4.1-7.8,10.3-10.3,16.8-6.9s8,9.9,4,17.7L898.4,716.4z M881.4,707.6
    l13.3,6.9l4.7-9c2.8-5.4,2.1-9.4-2.3-11.7s-8.2-0.5-10.9,4.8L881.4,707.6z" />
        <path
            d="M950.5,631.8L942,658l-37.3-12.1l8.5-26l4,1.3l-7.1,21.7l12.5,4.1l6.8-21l4,1.3l-6.8,21l12.8,4.2l7.2-21.9L950.5,631.8z" />
        <path
            d="M925.3,562.4c1.3-8.7,6-13,13-11.9c6.7,1,10.2,6.8,9,15.1l-0.1,0.6l19-11.4l-0.8,5.5l-18.9,11.1l-0.7,4.9l16.9,2.5
    l-0.7,4.5l-38.8-5.8L925.3,562.4z M927.9,573.7l13.7,2l1.6-10.7c0.9-5.9-1.1-9.3-5.6-10c-4.5-0.7-7.2,2.2-8.1,8L927.9,573.7z" />
    </g>
    <g>
        <polygon points="65.9,430.5 104.9,401 85.9,356 46.9,385.5 	" />
    </g>
    <g>
        <polygon points="942.5,430.5 903.5,401 922.5,356 961.5,385.5 	" />
    </g>
</svg>